<svg width="28" height="32" viewBox="0 0 28 32" fill="none" xmlns="http://www.w3.org/2000/svg">
<path d="M6.2675 28.0002H0.4625V9.30645H6.2675V28.0002ZM3.36188 6.75645C1.50563 6.75645 0 5.21895 0 3.3627C1.32862e-08 2.47107 0.354197 1.61597 0.98467 0.985494C1.61514 0.35502 2.47025 0.000823975 3.36188 0.000823975C4.2535 0.000823975 5.10861 0.35502 5.73908 0.985494C6.36955 1.61597 6.72375 2.47107 6.72375 3.3627C6.72375 5.21895 5.2175 6.75645 3.36188 6.75645ZM27.9937 28.0002H22.2013V18.9002C22.2013 16.7314 22.1575 13.9502 19.1831 13.9502C16.165 13.9502 15.7025 16.3064 15.7025 18.7439V28.0002H9.90375V9.30645H15.4712V11.8564H15.5525C16.3275 10.3877 18.2206 8.8377 21.045 8.8377C26.92 8.8377 28 12.7064 28 17.7314V28.0002H27.9937Z" fill="#0A3871"/>
</svg>
