<svg width="32" height="48" viewBox="0 0 32 48" fill="none" xmlns="http://www.w3.org/2000/svg">
<path fill-rule="evenodd" clip-rule="evenodd" d="M23.4807 23.6529C23.4377 23.9311 23.3332 24.1959 23.1748 24.4275C23.0164 24.659 22.8082 24.8512 22.566 24.9898C22.0782 25.3086 21.6513 25.468 21.2194 25.6274C20.2997 25.9488 19.3317 26.2702 18.3077 26.643C17.2279 27.0157 16.2599 27.3885 15.3961 27.6585C14.3188 28.0313 13.2949 28.3526 12.3218 28.7254C11.5897 29.0425 10.902 29.4556 10.2765 29.9544C9.69475 30.4877 9.18707 31.0983 8.76729 31.7695C8.33536 32.515 8.0635 33.4766 8.0635 34.5975C8.0635 36.842 8.60214 38.5491 9.68195 39.6161C10.7592 40.7396 12.7562 41.2718 15.7162 41.2718C18.7346 41.2718 20.7824 40.6856 21.8648 39.5107C22.9395 38.3357 23.4781 36.6826 23.4781 34.5487V23.6529H23.4807ZM15.7187 0C21.0035 0 24.8832 1.01553 27.3604 3.09802C29.8401 5.12908 31.08 7.74119 31.08 10.8366V37.2148C31.08 38.2817 30.8666 39.4567 30.4906 40.737C30.1094 42.0225 29.3574 43.1949 28.1709 44.2592C27.0402 45.3313 25.4777 46.2389 23.4832 46.933C21.4887 47.6272 18.9023 48 15.7213 48C12.5454 48 9.95381 47.6272 7.96187 46.933C5.96994 46.2389 4.40485 45.3313 3.27422 44.2592C2.22244 43.3001 1.42566 42.089 0.957073 40.737C0.575963 39.4592 0.360001 38.2843 0.360001 37.2174V33.001C0.360001 30.7565 0.951991 28.674 2.13851 26.8563C3.32504 24.9898 4.9943 23.7095 7.15138 22.9073C8.22865 22.5345 9.46853 22.1618 10.8685 21.681C12.271 21.1976 13.5616 20.7169 14.8574 20.2927C16.1532 19.8633 17.2838 19.434 18.2518 19.0586C18.836 18.8221 19.4293 18.6094 20.0304 18.421L21.0009 17.9402C21.382 17.7268 21.7555 17.4055 22.1341 16.9787C22.5101 16.5545 22.8328 16.0737 23.1046 15.5389C23.3919 14.9599 23.5399 14.3203 23.5366 13.6724V11.9627C23.5405 11.3361 23.4105 10.716 23.1555 10.145C22.942 9.5023 22.5101 8.91612 21.9181 8.38393C21.3261 7.84917 20.5156 7.42239 19.5476 7.09845C18.5771 6.78222 17.2864 6.62025 15.828 6.62025C12.8096 6.62025 10.8151 7.21157 9.73785 8.43535C8.82318 9.50488 8.28455 10.8392 8.17784 12.3329C8.17784 12.6543 7.90852 12.8677 7.5833 12.8677L1.01043 12.9757C0.854295 12.9764 0.704214 12.9146 0.592862 12.8039C0.48151 12.6931 0.417906 12.5423 0.415897 12.3844V10.8418C0.415897 9.3429 0.687755 7.95458 1.27975 6.62025C1.87428 5.28334 2.79148 4.16497 4.02882 3.20086C5.2687 2.24189 6.88714 1.44231 8.82572 0.907552C10.7135 0.26481 13.0306 0 15.7238 0H15.7187Z" fill="#0A3871"/>
</svg>
