<svg width="30" height="30" viewBox="0 0 30 30" fill="none" xmlns="http://www.w3.org/2000/svg">
<path d="M15 16.26L8.70001 22.56C8.52001 22.74 8.31001 22.83 8.07001 22.83C7.83001 22.83 7.62001 22.74 7.44001 22.56C7.26001 22.38 7.17001 22.17 7.17001 21.93C7.17001 21.69 7.26001 21.48 7.44001 21.3L13.74 15L7.44001 8.7C7.26001 8.52 7.17001 8.31 7.17001 8.07C7.17001 7.83 7.26001 7.62 7.44001 7.44C7.62001 7.26 7.83001 7.17 8.07001 7.17C8.31001 7.17 8.52001 7.26 8.70001 7.44L15 13.74L21.3 7.44C21.48 7.26 21.69 7.17 21.93 7.17C22.17 7.17 22.38 7.26 22.56 7.44C22.74 7.62 22.83 7.83 22.83 8.07C22.83 8.31 22.74 8.52 22.56 8.7L16.26 15L22.56 21.3C22.74 21.48 22.83 21.69 22.83 21.93C22.83 22.17 22.74 22.38 22.56 22.56C22.38 22.74 22.17 22.83 21.93 22.83C21.69 22.83 21.48 22.74 21.3 22.56L15 16.26Z" fill="#356EA9"/>
</svg>
