<svg width="32" height="32" viewBox="0 0 32 32" fill="none" xmlns="http://www.w3.org/2000/svg">
<path d="M6.2222 29.3111C5.6222 29.3111 5.10183 29.0907 4.6611 28.65C4.22037 28.2092 4 27.6889 4 27.0889V8.57774C4 8.26292 4.10686 7.99903 4.32057 7.78608C4.53428 7.57312 4.79909 7.46664 5.115 7.46664C5.43091 7.46664 5.69442 7.57312 5.90553 7.78608C6.11664 7.99903 6.2222 8.26292 6.2222 8.57774V27.0889H20.5333C20.8482 27.0889 21.112 27.1957 21.325 27.4094C21.538 27.6232 21.6445 27.888 21.6445 28.2039C21.6445 28.5198 21.538 28.7833 21.325 28.9944C21.112 29.2055 20.8482 29.3111 20.5333 29.3111H6.2222ZM10.6666 24.8667C10.0666 24.8667 9.54627 24.6463 9.10553 24.2056C8.6648 23.7648 8.44443 23.2445 8.44443 22.6445V4.86664C8.44443 4.26664 8.6648 3.74628 9.10553 3.30554C9.54627 2.86479 10.0666 2.64441 10.6666 2.64441H24.4445C25.0445 2.64441 25.5648 2.86479 26.0056 3.30554C26.4463 3.74628 26.6667 4.26664 26.6667 4.86664V22.6445C26.6667 23.2445 26.4463 23.7648 26.0056 24.2056C25.5648 24.6463 25.0445 24.8667 24.4445 24.8667H10.6666ZM10.6666 22.6445H24.4445V4.86664H10.6666V22.6445Z" fill="white"/>
</svg>
