<svg xmlns="http://www.w3.org/2000/svg" height="20" viewBox="0 96 960 960" width="20"><path d="M479.561 802Q507 802 526 783.439q19-18.562 19-46Q545 710 526.439 690.5q-18.562-19.5-46-19.5Q453 671 434 690.289q-19 19.29-19 46.729 0 27.438 18.561 46.21 18.562 18.772 46 18.772Zm.228-176Q504 626 521.5 608.65T539 567V422q0-24.3-17.289-41.65-17.29-17.35-41.5-17.35Q456 363 438.5 380.35T421 422v145q0 24.3 17.289 41.65 17.29 17.35 41.5 17.35Zm.487 368Q393 994 317.013 961.416q-75.988-32.583-132.917-89.512T94.584 739.029Q62 663.083 62 575.542 62 488 94.584 412.513q32.583-75.488 89.512-132.417t132.875-89.512Q392.917 158 480.458 158q87.542 0 163.029 32.584 75.488 32.583 132.417 89.512t89.512 132.641Q898 488.449 898 575.724q0 87.276-32.584 163.263-32.583 75.988-89.512 132.917t-132.641 89.512Q567.551 994 480.276 994Z"/></svg>