<svg width="48" height="48" viewBox="0 0 48 48" fill="none" xmlns="http://www.w3.org/2000/svg">
<path d="M28.2364 48H19.789C19.2415 48 18.7624 47.8463 18.3517 47.539C17.9411 47.2317 17.7162 46.8091 17.6771 46.2713L16.7385 40.509C16.1128 40.2785 15.4186 39.952 14.656 39.5294C13.8933 39.1068 13.2383 38.6843 12.6908 38.2617L7.29376 40.6819C6.82446 40.9508 6.31605 40.9892 5.76853 40.7971C5.221 40.605 4.81036 40.2593 4.5366 39.7599L0.312869 32.2689C0 31.8079 -0.0782173 31.3277 0.0782173 30.8283C0.234652 30.3289 0.527967 29.9256 0.958162 29.6182L5.82719 26.0456C5.78808 25.7767 5.75875 25.431 5.73919 25.0084C5.71964 24.5858 5.70986 24.2209 5.70986 23.9136C5.70986 23.6447 5.71964 23.3085 5.73919 22.9052C5.75875 22.5018 5.78808 22.1465 5.82719 21.8391L0.958162 18.3818C0.488858 18.0744 0.195543 17.6615 0.0782173 17.1429C-0.0391086 16.6242 0.0391087 16.1345 0.312869 15.6735L4.5366 8.2401C4.84947 7.77911 5.26011 7.45258 5.76853 7.2605C6.27694 7.06843 6.78535 7.08763 7.29376 7.31813L12.5734 9.7383C13.121 9.31573 13.7858 8.88355 14.568 8.44178C15.3501 8 16.0737 7.66387 16.7385 7.43337L17.6771 1.72869C17.7162 1.19088 17.9411 0.768307 18.3517 0.460984C18.7624 0.153661 19.2415 0 19.789 0H28.2364C28.784 0 29.263 0.153661 29.6737 0.460984C30.0843 0.768307 30.3288 1.19088 30.407 1.72869L31.2869 7.43337C31.9518 7.66387 32.6851 8 33.4868 8.44178C34.2885 8.88355 34.9436 9.31573 35.452 9.7383L40.7317 7.31813C41.201 7.08763 41.7094 7.06843 42.2569 7.2605C42.8044 7.45258 43.2151 7.77911 43.4888 8.2401L47.7126 15.6158C47.9863 16.0768 48.0645 16.5762 47.9472 17.114C47.8299 17.6519 47.5561 18.0744 47.1259 18.3818L42.1396 21.7815C42.1787 22.1273 42.2178 22.5114 42.2569 22.934C42.296 23.3565 42.3156 23.7215 42.3156 24.0288C42.3156 24.3361 42.296 24.6915 42.2569 25.0948C42.2178 25.4982 42.1982 25.8535 42.1982 26.1609L47.0673 29.6182C47.4975 29.964 47.781 30.3866 47.9179 30.886C48.0548 31.3854 47.9863 31.8655 47.7126 32.3265L43.4888 39.8175C43.1759 40.3169 42.7555 40.6531 42.2276 40.8259C41.6996 40.9988 41.201 40.9508 40.7317 40.6819L35.3347 38.2617C34.7871 38.6843 34.1418 39.1164 33.3988 39.5582C32.6557 40 31.9713 40.3169 31.3456 40.509L30.407 46.2713C30.3288 46.8091 30.0843 47.2317 29.6737 47.539C29.263 47.8463 28.784 48 28.2364 48ZM23.954 32.2689C26.3006 32.2689 28.2951 31.4622 29.9377 29.8487C31.5802 28.2353 32.4015 26.2761 32.4015 23.9712C32.4015 21.6663 31.5802 19.7071 29.9377 18.0936C28.2951 16.4802 26.3006 15.6735 23.954 15.6735C21.6075 15.6735 19.613 16.4802 17.9704 18.0936C16.3279 19.7071 15.5066 21.6663 15.5066 23.9712C15.5066 26.2761 16.3279 28.2353 17.9704 29.8487C19.613 31.4622 21.6075 32.2689 23.954 32.2689Z" fill="#0A3871"/>
</svg>
